<svg width="274" height="266" viewBox="0 0 274 266" fill="none" xmlns="http://www.w3.org/2000/svg">
<rect width="274" height="266" rx="20" fill="#6D69FF"/>
<path d="M197.048 212.496V76.4188C197.066 64.0427 187.035 54 174.656 54H160.445H97.5435C85.1923 54 75.1734 63.9981 75.1512 76.3457L75 160.685C75 172.381 77.8853 181.39 83.6563 187.712C89.7308 193.718 98.3871 196.721 109.625 196.721H144.25L197.048 212.496Z" fill="white"/>
<path d="M107.427 113.476C101.238 113.476 96.2197 108.458 96.2197 102.268C96.2197 96.0783 101.238 91.0605 107.427 91.0605C113.617 91.0605 118.635 96.0783 118.635 102.268C118.635 108.458 113.617 113.476 107.427 113.476Z" fill="#2E2D73"/>
</svg>
