<svg width="1092" height="290" viewBox="0 0 1092 290" fill="none" xmlns="http://www.w3.org/2000/svg">
<path d="M341.977 232V212.312L431.466 83.9602H341.466V57.4545H470.67V77.142L381.267 205.494H471.182V232H341.977ZM538.085 234.642C529.79 234.642 522.318 233.165 515.67 230.21C509.08 227.199 503.852 222.767 499.989 216.915C496.182 211.062 494.278 203.847 494.278 195.267C494.278 187.881 495.642 181.773 498.369 176.943C501.097 172.114 504.818 168.25 509.534 165.352C514.25 162.455 519.563 160.267 525.472 158.79C531.438 157.256 537.602 156.148 543.966 155.466C551.636 154.67 557.858 153.96 562.631 153.335C567.403 152.653 570.869 151.631 573.028 150.267C575.244 148.847 576.352 146.659 576.352 143.705V143.193C576.352 136.773 574.449 131.801 570.642 128.278C566.835 124.756 561.352 122.994 554.193 122.994C546.636 122.994 540.642 124.642 536.21 127.938C531.835 131.233 528.881 135.125 527.347 139.614L498.54 135.523C500.813 127.568 504.563 120.92 509.79 115.58C515.017 110.182 521.409 106.148 528.966 103.477C536.523 100.75 544.875 99.3864 554.023 99.3864C560.33 99.3864 566.608 100.125 572.858 101.602C579.108 103.08 584.818 105.523 589.989 108.932C595.159 112.284 599.307 116.858 602.432 122.653C605.614 128.449 607.205 135.693 607.205 144.386V232H577.545V214.017H576.523C574.648 217.653 572.006 221.062 568.597 224.244C565.244 227.369 561.011 229.898 555.898 231.83C550.841 233.705 544.903 234.642 538.085 234.642ZM546.097 211.972C552.29 211.972 557.659 210.75 562.205 208.307C566.75 205.807 570.244 202.511 572.688 198.42C575.188 194.33 576.438 189.869 576.438 185.04V169.614C575.472 170.409 573.824 171.148 571.494 171.83C569.222 172.511 566.665 173.108 563.824 173.619C560.983 174.131 558.17 174.585 555.386 174.983C552.602 175.381 550.188 175.722 548.142 176.006C543.54 176.631 539.42 177.653 535.784 179.074C532.148 180.494 529.278 182.483 527.176 185.04C525.074 187.54 524.023 190.778 524.023 194.756C524.023 200.438 526.097 204.727 530.244 207.625C534.392 210.523 539.676 211.972 546.097 211.972ZM703.597 101.091V124.955H628.341V101.091H703.597ZM646.92 69.7273H677.773V192.625C677.773 196.773 678.398 199.955 679.648 202.17C680.955 204.33 682.659 205.807 684.761 206.602C686.864 207.398 689.193 207.795 691.75 207.795C693.682 207.795 695.443 207.653 697.034 207.369C698.682 207.085 699.932 206.83 700.784 206.602L705.983 230.722C704.335 231.29 701.977 231.915 698.909 232.597C695.898 233.278 692.205 233.676 687.83 233.79C680.102 234.017 673.142 232.852 666.949 230.295C660.756 227.682 655.841 223.648 652.205 218.193C648.625 212.739 646.864 205.92 646.92 197.739V69.7273ZM794.768 101.091V124.955H719.513V101.091H794.768ZM738.092 69.7273H768.945V192.625C768.945 196.773 769.57 199.955 770.82 202.17C772.126 204.33 773.831 205.807 775.933 206.602C778.036 207.398 780.365 207.795 782.922 207.795C784.854 207.795 786.615 207.653 788.206 207.369C789.854 207.085 791.104 206.83 791.956 206.602L797.155 230.722C795.507 231.29 793.149 231.915 790.081 232.597C787.07 233.278 783.376 233.676 779.001 233.79C771.274 234.017 764.314 232.852 758.121 230.295C751.928 227.682 747.013 223.648 743.376 218.193C739.797 212.739 738.036 205.92 738.092 197.739V69.7273ZM877.119 234.557C863.994 234.557 852.659 231.83 843.114 226.375C833.625 220.864 826.324 213.08 821.21 203.023C816.097 192.909 813.54 181.006 813.54 167.312C813.54 153.847 816.097 142.028 821.21 131.858C826.381 121.631 833.597 113.676 842.858 107.994C852.119 102.256 863 99.3864 875.5 99.3864C883.568 99.3864 891.182 100.693 898.341 103.307C905.557 105.864 911.92 109.841 917.432 115.239C923 120.636 927.375 127.511 930.557 135.864C933.739 144.159 935.33 154.045 935.33 165.523V174.983H828.028V154.188H905.756C905.699 148.278 904.42 143.023 901.92 138.42C899.42 133.761 895.926 130.097 891.438 127.426C887.006 124.756 881.835 123.42 875.926 123.42C869.619 123.42 864.08 124.955 859.307 128.023C854.534 131.034 850.813 135.011 848.142 139.955C845.528 144.841 844.193 150.21 844.136 156.062V174.216C844.136 181.83 845.528 188.364 848.312 193.818C851.097 199.216 854.989 203.364 859.989 206.261C864.989 209.102 870.841 210.523 877.545 210.523C882.034 210.523 886.097 209.898 889.733 208.648C893.369 207.341 896.523 205.438 899.193 202.938C901.864 200.438 903.881 197.341 905.244 193.648L934.051 196.886C932.233 204.5 928.767 211.148 923.653 216.83C918.597 222.455 912.119 226.83 904.222 229.955C896.324 233.023 887.29 234.557 877.119 234.557ZM992.283 155.295V232H961.43V101.091H990.919V123.335H992.453C995.464 116.006 1000.27 110.182 1006.86 105.864C1013.5 101.545 1021.71 99.3864 1031.49 99.3864C1040.52 99.3864 1048.39 101.318 1055.1 105.182C1061.86 109.045 1067.08 114.642 1070.78 121.972C1074.53 129.301 1076.37 138.193 1076.32 148.648V232H1045.46V153.42C1045.46 144.67 1043.19 137.824 1038.65 132.881C1034.16 127.937 1027.94 125.466 1019.98 125.466C1014.58 125.466 1009.78 126.659 1005.58 129.045C1001.43 131.375 998.163 134.756 995.777 139.188C993.447 143.619 992.283 148.989 992.283 155.295Z" fill="#F5F5F5"/>
<rect y="12" width="274" height="266" rx="20" fill="#6D69FF"/>
<path d="M197.048 224.496V88.4188C197.066 76.0427 187.035 66 174.656 66H160.445H97.5435C85.1923 66 75.1734 75.9981 75.1512 88.3457L75 172.685C75 184.381 77.8853 193.39 83.6563 199.712C89.7308 205.718 98.3871 208.721 109.625 208.721H144.25L197.048 224.496Z" fill="white"/>
<path d="M107.427 125.476C101.238 125.476 96.2197 120.458 96.2197 114.268C96.2197 108.078 101.238 103.061 107.427 103.061C113.617 103.061 118.635 108.078 118.635 114.268C118.635 120.458 113.617 125.476 107.427 125.476Z" fill="#2E2D73"/>
</svg>
